<svg class="symbol" height="100%"
    viewBox="0 0 286 286" fill="none" xmlns="http://www.w3.org/2000/svg">
    <path opacity="0.08"
      d="M144.922 285.791C112.314 285.791 85.2303 281.405 63.6713 272.633C42.3818 263.586 26.4821 251.387 15.972 236.035C5.46204 220.409 0.207031 202.864 0.207031 183.4C0.207031 168.048 3.30614 154.615 9.50435 143.101C15.972 131.313 24.7304 122.267 35.7794 115.961C46.8284 109.382 59.4943 106.092 73.7771 106.092C90.7548 106.092 103.96 110.753 113.392 120.074C123.093 129.394 127.944 141.731 127.944 157.082C127.944 173.805 122.285 187.238 110.966 197.381C99.9174 207.25 84.2871 212.185 64.0756 212.185C58.4163 212.185 53.1613 211.774 48.3105 210.951C43.4598 209.855 38.7437 208.347 34.1625 206.428C41.1691 222.054 54.2393 233.842 73.3729 241.792C92.5065 249.468 115.682 253.306 142.901 253.306C167.155 253.306 186.827 250.701 201.918 245.493C217.01 240.01 228.598 233.156 236.682 224.932C244.767 216.434 250.157 207.661 252.852 198.615C247.731 203.001 241.937 206.428 235.47 208.895C229.271 211.088 221.86 212.185 213.237 212.185C197.607 212.185 184.806 207.661 174.835 198.615C164.864 189.568 159.878 177.232 159.878 161.606C159.878 146.254 164.594 134.329 174.026 125.83C183.728 117.058 196.529 112.672 212.428 112.672C214.045 112.672 216.066 112.809 218.492 113.083C214.45 111.712 210.003 110.479 205.152 109.382C200.571 108.011 195.855 106.915 191.004 106.092C188.579 106.092 186.019 106.092 183.324 106.092H131.178V75.2516H195.451C204.074 75.2516 210.542 74.8404 214.854 74.0179C219.435 72.9214 223.073 71.2765 225.768 69.0834C229.81 65.2454 231.832 60.1738 231.832 53.8686C231.832 46.4668 229.676 40.984 225.364 37.4202C222.669 35.2271 219.3 33.5822 215.258 32.4856C211.216 31.3891 204.479 30.8408 195.046 30.8408H48.7148V0H192.621C207.443 0 219.031 1.09656 227.385 3.28969C236.009 5.4828 243.42 9.32077 249.618 14.8036C254.199 18.9157 257.837 24.1244 260.532 30.4296C263.496 36.4607 264.978 44.1366 264.978 53.4574C264.978 62.7782 263.227 70.4541 259.723 76.4852C256.22 82.5163 252.313 87.3137 248.001 90.8776C245.036 93.3448 241.668 95.538 237.895 97.4569C254.334 106.778 266.461 118.566 274.276 132.821C282.091 147.076 285.999 162.839 285.999 180.11C285.999 200.123 281.013 218.216 271.042 234.39C261.34 250.29 246.114 262.901 225.364 272.222C204.613 281.268 177.799 285.791 144.922 285.791ZM191.813 160.372C191.813 166.403 193.969 171.749 198.28 176.409C202.592 181.07 209.329 183.4 218.492 183.4C227.924 183.4 235.47 181.07 241.129 176.409C247.058 171.749 251.369 165.444 254.064 157.494C251.1 151.188 246.519 145.98 240.32 141.868C234.392 137.481 227.115 135.288 218.492 135.288C211.755 135.288 205.556 137.344 199.897 141.456C194.508 145.294 191.813 151.6 191.813 160.372ZM71.756 135.288C60.4375 135.288 50.8707 138.989 43.0555 146.391C35.2404 153.793 30.7939 163.251 29.7159 174.765C34.0277 177.506 38.609 179.699 43.4598 181.344C48.3106 182.715 53.5656 183.4 59.2248 183.4C72.4297 183.4 81.727 180.933 87.1167 175.998C92.776 171.064 95.6056 164.758 95.6056 157.082C95.6056 149.955 93.4497 144.609 89.1379 141.045C85.0956 137.207 79.3016 135.288 71.756 135.288Z"
      fill="#151513" />
  </svg>